Coordinates
version=1
nRows=18
nColumns=22
inDegrees=yes

Units are S.I. units (second, meters, Newtons, ...)
If the header above contains a line with 'inDegrees', this indicates whether rotational values are in degrees (yes) or radians (no).

endheader
time	pelvis_tilt	pelvis_list	pelvis_rotation	pelvis_tx	pelvis_ty	pelvis_tz	hip_flexion_r	hip_adduction_r	hip_rotation_r	knee_angle_r	ankle_angle_r	subtalar_angle_r	hip_flexion_l	hip_adduction_l	hip_rotation_l	knee_angle_l	ankle_angle_l	subtalar_angle_l	lumbar_extension	lumbar_bending	lumbar_rotation
      1.38000000	     -5.42935443	      0.41778420	     -8.75967421	     -0.89982854	      0.86949697	     -0.21851681	     31.89504141	     -6.74335874	     11.52252468	    -61.23314663	      1.81940270	      1.58523185	     -3.61743490	     -0.10424339	     -8.04220453	     -9.64817507	     22.21080854	      2.99632244	     -5.94332830	     -2.67077674	      6.40344672
      1.39000000	     -5.18807427	      0.04532440	     -8.46110905	     -0.89559439	      0.86945704	     -0.21980926	     32.78918021	     -6.43809452	     10.88448572	    -61.96943775	      2.02869511	      1.32129756	     -4.20753108	     -0.36990358	     -7.83290817	     -9.62222852	     22.40483032	      2.95565282	     -6.32690363	     -2.30283082	      5.95930029
      1.40000000	     -4.98107333	     -0.32395438	     -8.21211554	     -0.89117317	      0.86936808	     -0.22103562	     33.61970701	     -6.18889880	     10.14533017	    -62.25278996	      2.42742794	      0.86659134	     -4.77239773	     -0.63359481	     -7.64447195	     -9.60498257	     22.62751405	      2.86926204	     -6.66283301	     -1.91826679	      5.61330241
      1.41000000	     -4.85269098	     -0.66917441	     -7.94714416	     -0.88661467	      0.86915987	     -0.22231918	     34.42761480	     -6.04613823	      9.28914368	    -62.10024064	      2.94048753	      0.77853228	     -5.20328113	     -0.88818844	     -7.45205633	     -9.68333231	     22.83876910	      2.81504527	     -6.90652234	     -1.52724624	      5.26907480
      1.42000000	     -4.75510458	     -1.02860605	     -7.70249146	     -0.88187717	      0.86891963	     -0.22357371	     35.14347098	     -5.93923281	      8.35153949	    -61.51052148	      3.45364689	      0.69446605	     -5.59342984	     -1.16204250	     -7.26759630	     -9.80303704	     23.06266179	      2.74320701	     -7.11382449	     -1.10213900	      4.98620455
      1.43000000	     -4.67865808	     -1.40022675	     -7.47311220	     -0.87696172	      0.86864650	     -0.22477513	     35.75288414	     -5.85224703	      7.36445252	    -60.50903054	      3.91862040	      0.64014293	     -5.94985233	     -1.45510200	     -7.09628798	     -9.96933377	     23.29265040	      2.66842368	     -7.29509394	     -0.65118972	      4.74326350
      1.44000000	     -4.61089376	     -1.78863614	     -7.25624651	     -0.87186723	      0.86835077	     -0.22590459	     36.23155221	     -5.76305384	      6.35666560	    -59.11018322	      4.29946141	      0.62773001	     -6.28559581	     -1.77269122	     -6.93628505	    -10.18455568	     23.53151023	      2.60104073	     -7.46471605	     -0.17478861	      4.53783232
      1.45000000	     -4.53657207	     -2.19706871	     -7.05268193	     -0.86659708	      0.86803644	     -0.22693739	     36.56127336	     -5.64781859	      5.36069236	    -57.33912777	      4.56049114	      0.66047121	     -6.62324643	     -2.11768915	     -6.79595831	    -10.43887681	     23.78174996	      2.54450366	     -7.64132108	      0.32701253	      4.36044175
      1.46000000	     -4.45362816	     -2.61509756	     -6.86142193	     -0.86116276	      0.86767823	     -0.22783586	     36.74257234	     -5.49699737	      4.41051632	    -55.22279428	      4.69425015	      0.76469986	     -6.96630219	     -2.48216473	     -6.66949959	    -10.72832291	     24.04616419	      2.50156823	     -7.82596278	      0.83504350	      4.20713556
      1.47000000	     -4.35203195	     -3.03041591	     -6.68374652	     -0.85557453	      0.86726033	     -0.22858246	     36.77350435	     -5.30532279	      3.54773573	    -52.79379657	      4.69484653	      0.98043490	     -7.33079718	     -2.85254072	     -6.55486566	    -11.04167275	     24.32569748	      2.47570920	     -8.02975934	      1.33185220	      4.06762125
      1.48000000	     -4.24822692	     -3.43111067	     -6.50973708	     -0.84982352	      0.86672676	     -0.22918843	     36.68186747	     -5.08589485	      2.77346610	    -50.08908066	      4.57585538	      1.35144345	     -7.70487484	     -3.21852875	     -6.44833509	    -11.36369353	     24.62908439	      2.46020732	     -8.22914807	      1.80888723	      3.91718563
      1.49000000	     -4.14177389	     -3.80044251	     -6.33659772	     -0.84391733	      0.86606607	     -0.22963707	     36.48058580	     -4.84936405	      2.11128444	    -47.14577405	      4.34455573	      1.94769643	     -8.09483740	     -3.56369834	     -6.34226684	    -11.67785819	     24.90186308	      2.46738800	     -8.42441740	      2.24035553	      3.76486353
      1.50000000	     -4.07885428	     -4.13105636	     -6.13952360	     -0.83786705	      0.86515812	     -0.22998132	     36.23784872	     -4.61429055	      1.54492394	    -44.01808138	      4.01271950	      2.56430321	     -8.43339348	     -3.88981730	     -6.20784508	    -12.01275120	     25.27250961	      2.45209522	     -8.55934621	      2.63597136	      3.53769929
      1.51000000	     -3.99798286	     -4.39017651	     -5.94154259	     -0.83167562	      0.86412696	     -0.23018689	     35.90790984	     -4.40171397	      1.13205204	    -40.73941465	      3.57782243	      3.54913441	     -8.82333866	     -4.14657607	     -6.06474159	    -12.28836205	     25.55096177	      2.51331272	     -8.70691853	      2.93712027	      3.31232065
      1.52000000	     -3.97091749	     -4.59452346	     -5.70684970	     -0.82534104	      0.86282164	     -0.23029297	     35.57880718	     -4.21670311	      0.80711296	    -37.36871793	      3.13496892	      4.43629832	     -9.14906470	     -4.37373396	     -5.89923167	    -12.58112079	     25.88426698	      2.57538164	     -8.77945972	      3.18157377	      3.01155128
      1.53000000	     -3.97984008	     -4.72912678	     -5.44385756	     -0.81886341	      0.86128798	     -0.23029377	     35.25217414	     -4.07135405	      0.59456853	    -33.95411709	      2.70515820	      5.30773215	     -9.44694718	     -4.54969552	     -5.71944102	    -12.85417351	     26.21037267	      2.67837819	     -8.79841470	      3.34724009	      2.65483655
      1.54000000	     -4.03549687	     -4.79264010	     -5.15346567	     -0.81224654	      0.85952019	     -0.23019440	     34.95610955	     -3.97115507	      0.49462643	    -30.54197205	      2.33113880	      6.13652112	     -9.70676847	     -4.67443769	     -5.53191726	    -13.10607626	     26.52746719	      2.82662687	     -8.75208671	      3.43477769	      2.24226510
      1.55000000	     -4.14212031	     -4.78707436	     -4.84124038	     -0.80549963	      0.85753108	     -0.23000493	     34.71411456	     -3.91834667	      0.50195839	    -27.18120381	      2.03204844	      6.88630469	     -9.92813706	     -4.74743969	     -5.34186976	    -13.33052740	     26.82642622	      3.01478603	     -8.63872750	      3.44686016	      1.78558314
